<svg width="1439" height="579" viewBox="0 0 1439 579" fill="none" xmlns="http://www.w3.org/2000/svg">
<path fill-rule="evenodd" clip-rule="evenodd" d="M722.5 68.5L565.5 539.117L590.266 578.512H27.4795L0 535.124L152.584 115.7L211.881 72.3118H457.751L516.325 108.469L553.715 16.9606L771 0.010483L741.5 19L722.5 68.5ZM327.585 431.714L420.147 176.444L478.722 212.602L389.052 460.64H201.034L327.585 431.714Z" fill="white"/>
<path d="M600.5 539.117L768 36.7822L827 0.010483L1438.82 0L1396.88 117.873H918.158L1018.68 161.261L995.535 225.621L1054.11 189.464H1325.29L1354.21 232.853L1245.02 535.127L1185.72 578.516H625.5L600.5 539.117ZM982.518 460.643L1036.75 311.675L943.468 368.804L910.927 460.643H982.518Z" fill="white"/>
</svg>
